<svg width="48" height="33" viewBox="0 0 48 33" fill="none" xmlns="http://www.w3.org/2000/svg">
<path d="M45.3842 2.79992C44.8686 2.5064 44.2854 2.35205 43.6922 2.35205C43.0989 2.35205 42.5157 2.5064 42.0002 2.79992L34.8002 6.99991V6.08792C34.8002 4.73532 34.2629 3.43811 33.3065 2.48168C32.3499 1.52525 31.0527 0.987915 29.7002 0.987915H6.00015C4.64754 0.987915 3.35034 1.52525 2.39389 2.48168C1.43747 3.43811 0.900146 4.73532 0.900146 6.08792V27.3399C0.900146 28.0096 1.03206 28.6729 1.28836 29.2917C1.54465 29.9104 1.92033 30.4726 2.39389 30.9462C2.86747 31.4197 3.4297 31.7955 4.04846 32.0517C4.66722 32.308 5.3304 32.4399 6.00015 32.4399H29.6762C30.3479 32.4432 31.0137 32.3136 31.6352 32.0586C32.2568 31.8037 32.8218 31.4286 33.2979 30.9547C33.774 30.4809 34.1519 29.9175 34.4097 29.2972C34.6674 28.6768 34.8002 28.0117 34.8002 27.3399V26.4279L42.0002 30.5799C42.5219 30.8809 43.1139 31.0383 43.7162 31.0359C44.3148 31.0396 44.9034 30.8821 45.4202 30.5799C45.944 30.2832 46.3791 29.8521 46.6808 29.3311C46.9824 28.81 47.1396 28.218 47.1362 27.6159V5.81192C47.1447 5.19818 46.9863 4.59366 46.6776 4.06309C46.3691 3.53251 45.9219 3.09588 45.3842 2.79992ZM31.7762 8.67985V27.3399C31.7762 27.8968 31.5549 28.431 31.161 28.8249C30.7673 29.2186 30.2331 29.4399 29.6762 29.4399H6.00015C5.44318 29.4399 4.90905 29.2186 4.51522 28.8249C4.1214 28.431 3.90015 27.8968 3.90015 27.3399V6.08792C3.90331 5.53305 4.12596 5.00199 4.51945 4.61074C4.91293 4.21951 5.44527 3.99991 6.00015 3.99991H29.6762C30.2331 3.99991 30.7673 4.22117 31.161 4.61499C31.5549 5.00882 31.7762 5.54296 31.7762 6.09991V8.67985ZM44.1002 27.6159C44.1015 27.6901 44.082 27.7633 44.0438 27.8269C44.0057 27.8905 43.9503 27.9423 43.8842 27.9759C43.8224 28.0182 43.7492 28.0408 43.6742 28.0408C43.5992 28.0408 43.526 28.0182 43.4642 27.9759L34.8002 22.9599V10.4679L43.4882 5.45192C43.55 5.40962 43.6232 5.38698 43.6982 5.38698C43.7732 5.38698 43.8464 5.40962 43.9082 5.45192C43.9743 5.48565 44.0297 5.5373 44.0678 5.60094C44.106 5.6646 44.1255 5.7377 44.1242 5.81192L44.1002 27.6159Z" fill="#1D1C1D"/>
<path d="M25.6082 16.252C25.242 16.1245 24.8404 16.1463 24.4902 16.3123C24.1398 16.4785 23.8691 16.7758 23.7361 17.14C23.2956 18.3382 22.4996 19.3731 21.4545 20.1063C20.4096 20.8395 19.1655 21.2358 17.889 21.2424C16.6125 21.2488 15.3644 20.8653 14.3119 20.1427C13.2595 19.4203 12.4529 18.3936 12.0001 17.2C11.8474 16.8631 11.5738 16.5958 11.2334 16.4511C10.893 16.3063 10.5106 16.2948 10.1621 16.4185C9.81347 16.5423 9.52404 16.7923 9.35109 17.1193C9.17814 17.4463 9.13427 17.8263 9.22814 18.184C9.86816 19.9692 11.044 21.5131 12.5948 22.6045C14.1456 23.6961 15.9957 24.2818 17.8921 24.2818C19.7886 24.2818 21.6387 23.6961 23.1895 22.6045C24.7402 21.5131 25.9161 19.9692 26.5562 18.184C26.6292 17.9955 26.6623 17.7939 26.6535 17.592C26.6448 17.3899 26.5942 17.1919 26.5053 17.0104C26.4162 16.8289 26.2905 16.6678 26.1362 16.5373C25.9817 16.4068 25.802 16.3096 25.6082 16.252Z" fill="#1D1C1D"/>
<path d="M14.844 15.388C15.1924 15.3902 15.5337 15.2894 15.8247 15.098C16.1158 14.9068 16.3438 14.6335 16.4799 14.3128C16.6159 13.9921 16.6539 13.6382 16.5891 13.2959C16.5243 12.9536 16.3596 12.6382 16.1158 12.3893C15.8719 12.1405 15.5599 11.9695 15.2191 11.8978C14.8782 11.8261 14.5237 11.8568 14.2003 11.9863C13.8769 12.1157 13.599 12.3382 13.4018 12.6253C13.2046 12.9125 13.0968 13.2515 13.092 13.6C13.0873 13.8331 13.129 14.0647 13.2149 14.2814C13.3008 14.4982 13.4291 14.6956 13.5923 14.8621C13.7555 15.0286 13.9502 15.1609 14.1652 15.2512C14.3801 15.3415 14.6109 15.388 14.844 15.388Z" fill="#1D1C1D"/>
<path d="M20.5558 15.388C20.9041 15.3902 21.2454 15.2894 21.5365 15.098C21.8277 14.9068 22.0555 14.6335 22.1916 14.3128C22.3276 13.9921 22.3657 13.6382 22.3009 13.2959C22.2361 12.9536 22.0714 12.6382 21.8277 12.3893C21.5838 12.1405 21.2718 11.9695 20.9308 11.8978C20.59 11.8261 20.2354 11.8568 19.912 11.9863C19.5886 12.1157 19.3108 12.3382 19.1136 12.6253C18.9163 12.9125 18.8086 13.2515 18.8038 13.6C18.799 13.8331 18.8407 14.0647 18.9267 14.2814C19.0126 14.4982 19.1409 14.6956 19.3041 14.8621C19.4673 15.0286 19.662 15.1609 19.8769 15.2512C20.0919 15.3415 20.3227 15.388 20.5558 15.388Z" fill="#1D1C1D"/>
</svg>

