<svg width="38" height="38" viewBox="0 0 38 38" fill="none" xmlns="http://www.w3.org/2000/svg">
<path fill-rule="evenodd" clip-rule="evenodd" d="M7.859 7.801C4.89262 10.6425 3.10083 14.3222 3.10083 17.8001V21.7582C4.75757 20.232 6.97 19.3 9.4001 19.3H9.7501C12.0421 19.3 13.9001 21.158 13.9001 23.45V33.75C13.9001 36.042 12.0421 37.9 9.7501 37.9H9.4001C4.26385 37.9 0.100098 33.7362 0.100098 28.6C0.100098 28.5606 0.100338 28.5213 0.100828 28.482V17.8001C0.100828 13.3251 2.36985 8.9048 5.7838 5.6345C9.2085 2.35408 13.9171 0.100098 19.0008 0.100098C24.0845 0.100098 28.7932 2.35408 32.2178 5.6345C35.6318 8.9048 37.9008 13.3251 37.9008 17.8001V28.5566L37.9009 28.6C37.9009 33.7362 33.7372 37.9 28.6009 37.9H28.2509C25.959 37.9 24.1009 36.042 24.1009 33.75V23.45C24.1009 21.158 25.959 19.3 28.2509 19.3H28.6009C31.0313 19.3 33.244 20.2323 34.9008 21.7588V17.8001C34.9008 14.3222 33.109 10.6425 30.1426 7.801C27.1869 4.96967 23.1955 3.1001 19.0008 3.1001C14.8062 3.1001 10.8148 4.96967 7.859 7.801ZM3.1001 28.6001C3.10016 32.0794 5.9207 34.9 9.4001 34.9H9.7501C10.3852 34.9 10.9001 34.3851 10.9001 33.75V23.45C10.9001 22.8149 10.3852 22.3 9.7501 22.3H9.4001C5.9531 22.3 3.15273 25.0683 3.10083 28.5029L3.1001 28.6001ZM34.9008 28.6001V28.5643C34.8816 25.1013 32.0684 22.3 28.6009 22.3H28.2509C27.6158 22.3 27.1009 22.8149 27.1009 23.45V33.75C27.1009 34.3851 27.6158 34.9 28.2509 34.9H28.6009C32.0803 34.9 34.9008 32.0794 34.9008 28.6001Z" fill="#1D1C1D"/>
</svg>
